<svg
      xmlns="http://www.w3.org/2000/svg"
      width="15"
      height="15"
      fill="none"
      viewBox="0 0 15 15"
    >
      <path
        fill="#000"
        d="M9.757 0v1.25H1.248v12.5h12.483v-8.5h1.248v8.5a1.2 1.2 0 01-.374.875c-.25.25-.541.375-.874.375H1.248c-.333 0-.624-.125-.874-.375A1.2 1.2 0 010 13.75V1.25A1.2 1.2 0 01.374.375C.624.125.915 0 1.248 0h8.51zm3.558 0v1.688H15v1.25h-1.685v1.687h-1.248V2.937H10.38v-1.25h1.686V0h1.248zM2.497 11.625h9.986l-2.996-4-2.642 3.48L4.889 8.52l-2.392 3.104zM1.248 1.25v12.5-12.5z"
      ></path>
    </svg>